<svg xmlns="http://www.w3.org/2000/svg" xmlns:xlink="http://www.w3.org/1999/xlink" fill="none" version="1.1" width="24" height="24" viewBox="0 0 24 24"><g><g><g><g><path d="M15,22.75C15,22.75,9,22.75,9,22.75C3.57,22.75,1.25,20.43,1.25,15C1.25,15,1.25,9,1.25,9C1.25,3.57,3.57,1.25,9,1.25C9,1.25,15,1.25,15,1.25C20.43,1.25,22.75,3.57,22.75,9C22.75,9,22.75,15,22.75,15C22.75,20.43,20.43,22.75,15,22.75C15,22.75,15,22.75,15,22.75ZM9,2.75C4.390000000000001,2.75,2.75,4.390000000000001,2.75,9C2.75,9,2.75,15,2.75,15C2.75,19.61,4.390000000000001,21.25,9,21.25C9,21.25,15,21.25,15,21.25C19.61,21.25,21.25,19.61,21.25,15C21.25,15,21.25,9,21.25,9C21.25,4.390000000000001,19.61,2.75,15,2.75C15,2.75,9,2.75,9,2.75C9,2.75,9,2.75,9,2.75Z" fill="#292D32" fill-opacity="1"/></g><g><path d="M6.99999975189209,9.629999980926513C6.72999975189209,9.629999980926513,6.45999975189209,9.479999980926515,6.33000015189209,9.219999980926513C6.1399997518920895,8.849999980926514,6.29000005189209,8.399999980926513,6.65999975189209,8.209999980926513C10.00000475189209,6.539999980926513,13.99000475189209,6.539999980926513,17.33003475189209,8.209999980926513C17.70003475189209,8.399999980926513,17.85003475189209,8.849999980926514,17.67003475189209,9.219999980926513C17.48003475189209,9.589999980926514,17.04003475189209,9.739999980926514,16.66003475189209,9.559999980926513C13.74000475189209,8.099999980926514,10.250004751892089,8.099999980926514,7.33000475189209,9.559999980926513C7.22999975189209,9.609999980926514,7.10999975189209,9.629999980926513,6.99999975189209,9.629999980926513C6.99999975189209,9.629999980926513,6.99999975189209,9.629999980926513,6.99999975189209,9.629999980926513Z" fill="#292D32" fill-opacity="1"/></g><g><path d="M12,17.039999828338622C11.59,17.039999828338622,11.25,16.699999828338623,11.25,16.289999828338622C11.25,16.289999828338622,11.25,7.929999828338623,11.25,7.929999828338623C11.25,7.519999828338623,11.59,7.179999828338623,12,7.179999828338623C12.41,7.179999828338623,12.75,7.519999828338623,12.75,7.929999828338623C12.75,7.929999828338623,12.75,16.29999982833862,12.75,16.29999982833862C12.75,16.709999828338624,12.41,17.039999828338622,12,17.039999828338622C12,17.039999828338622,12,17.039999828338622,12,17.039999828338622Z" fill="#292D32" fill-opacity="1"/></g><g style="opacity:0;"></g></g></g></g></svg>