<svg width="24.000000" height="24.000000" viewBox="0 0 24 24" fill="none" xmlns="http://www.w3.org/2000/svg" xmlns:xlink="http://www.w3.org/1999/xlink">
	<desc>
			Created with Pixso.
	</desc>
	<defs/>
	<path d="M8.48 21.25C7.08 21.25 5.94 20.11 5.94 18.7L5.94 8.48C5.94 7.08 7.08 5.94 8.48 5.94L18.7 5.94C20.11 5.94 21.25 7.08 21.25 8.48L21.25 18.7C21.25 20.11 20.11 21.25 18.7 21.25L8.48 21.25Z" stroke="#000000" stroke-opacity="1.000000" stroke-width="1.500000" stroke-linejoin="round"/>
	<path d="M3.48 17.32C3.02 16.86 2.75 16.21 2.75 15.52L2.75 5.29C2.75 3.89 3.89 2.75 5.29 2.75L15.52 2.75C16.31 2.75 17.02 3.1 17.49 3.67" stroke="#000000" stroke-opacity="1.000000" stroke-width="1.500000" stroke-linejoin="round" stroke-linecap="round"/>
	<path d="M5.94 18.1L8.87 15.17C9.37 14.67 10.18 14.67 10.67 15.17L11.42 15.92C11.92 16.42 12.73 16.42 13.22 15.92L16.52 12.62C17.02 12.12 17.83 12.12 18.32 12.62L21.25 15.55" stroke="#000000" stroke-opacity="1.000000" stroke-width="1.500000" stroke-linejoin="round" stroke-linecap="round"/>
	<path d="M10.41 8.42C9.64 8.42 9.01 9.04 9.01 9.81C9.01 10.58 9.64 11.2 10.41 11.2C11.18 11.2 11.8 10.58 11.8 9.81C11.8 9.04 11.17 8.42 10.41 8.42Z" fill="#000000" fill-opacity="1.000000" fill-rule="evenodd"/>
</svg>
