<svg width="24.000000" height="24.000023" viewBox="0 0 24 24" fill="none" xmlns="http://www.w3.org/2000/svg" xmlns:xlink="http://www.w3.org/1999/xlink">
	<desc>
			Created with Pixso.
	</desc>
	<defs>
		<clipPath id="clip501_11484">
			<rect id="mic" width="24.000000" height="24.000000" transform="translate(0.000000 0.000023)" fill="white" fill-opacity="0"/>
		</clipPath>
	</defs>
	<rect id=".voice" width="24.000000" height="24.000000" fill="#FFCCCC" fill-opacity="0"/>
	<g clip-path="url(#clip501_11484)">
		<g opacity="0.000000">
			<rect id="rect" y="0.000023" width="24.000000" height="24.000000" fill="#000000" fill-opacity="1.000000"/>
		</g>
		<path id="path" d="M12 3.46C12.7 3.46 13.3 3.7 13.78 4.18C14.26 4.66 14.5 5.25 14.5 5.95L14.5 11.21C14.5 11.89 14.26 12.48 13.78 12.97C13.3 13.45 12.7 13.7 12 13.7C11.31 13.7 10.72 13.45 10.24 12.97C9.74 12.48 9.5 11.89 9.5 11.21L9.5 5.95C9.5 5.25 9.74 4.66 10.24 4.18C10.72 3.7 11.31 3.46 12 3.46ZM12 1.94C11.28 1.94 10.61 2.12 10 2.48C9.37 2.84 8.89 3.33 8.53 3.95C8.17 4.56 7.98 5.23 7.98 5.95L7.98 11.21C7.98 11.93 8.17 12.59 8.53 13.21C8.89 13.83 9.37 14.32 10 14.68C10.61 15.04 11.28 15.22 12 15.22C12.72 15.22 13.38 15.04 14 14.68C14.62 14.32 15.11 13.83 15.47 13.21C15.83 12.59 16.01 11.93 16.01 11.21L16.01 5.95C16.01 5.23 15.83 4.56 15.47 3.95C15.11 3.33 14.62 2.84 14 2.48C13.38 2.12 12.72 1.94 12 1.94ZM19.51 11.23C19.51 11.02 19.43 10.84 19.28 10.69C19.13 10.53 18.95 10.46 18.74 10.46C18.53 10.46 18.36 10.53 18.21 10.69C18.07 10.84 18 11.02 18 11.23C18 12.3 17.73 13.3 17.2 14.22C16.66 15.14 15.93 15.86 15.01 16.4C14.09 16.94 13.08 17.2 12 17.2C10.91 17.2 9.9 16.94 8.98 16.4C8.06 15.86 7.34 15.14 6.79 14.22C6.26 13.3 6 12.3 6 11.23C6 11.02 5.92 10.84 5.78 10.69C5.64 10.53 5.46 10.46 5.25 10.46C5.04 10.46 4.87 10.53 4.73 10.69C4.58 10.84 4.5 11.02 4.5 11.23C4.5 12.49 4.8 13.67 5.39 14.76C5.99 15.84 6.8 16.74 7.84 17.44C8.86 18.13 10 18.54 11.26 18.67L11.26 21.29C11.26 21.49 11.33 21.67 11.47 21.82C11.61 21.96 11.79 22.03 12 22.03C12.2 22.03 12.38 21.96 12.53 21.82C12.67 21.67 12.74 21.49 12.74 21.29L12.74 18.67C13.99 18.54 15.13 18.13 16.16 17.44C17.19 16.74 18.01 15.84 18.61 14.76C19.2 13.67 19.51 12.49 19.51 11.23Z" fill="#000000" fill-opacity="0.901961" fill-rule="nonzero"/>
	</g>
</svg>
