<svg width="24.000000" height="24.000000" viewBox="0 0 24 24" fill="none" xmlns="http://www.w3.org/2000/svg" xmlns:xlink="http://www.w3.org/1999/xlink">
	<desc>
			Created with Pixso.
	</desc>
	<defs>
		<clipPath id="clip503_10662">
			<rect id="line_viewfinder" width="24.000000" height="24.000000" fill="white" fill-opacity="0"/>
		</clipPath>
	</defs>
	<g clip-path="url(#clip503_10662)">
		<g opacity="0.000000">
			<rect id="rect" width="24.000000" height="24.000000" fill="#000000" fill-opacity="1.000000"/>
		</g>
		<path id="path" d="M2.76 9.53C2.95 9.53 3.12 9.45 3.28 9.31C3.42 9.17 3.5 8.99 3.5 8.78L3.5 5.76C3.5 5.13 3.72 4.6 4.16 4.16C4.6 3.72 5.13 3.5 5.76 3.5L8.71 3.5C8.91 3.5 9.09 3.43 9.25 3.29C9.4 3.14 9.48 2.96 9.48 2.76C9.48 2.53 9.4 2.35 9.26 2.21C9.12 2.06 8.93 1.99 8.71 1.99L5.76 1.99C5.08 1.99 4.46 2.16 3.88 2.5C3.29 2.83 2.83 3.28 2.5 3.86C2.16 4.44 1.99 5.07 1.99 5.76L1.99 8.78C1.99 8.99 2.06 9.17 2.22 9.31C2.37 9.45 2.55 9.53 2.76 9.53ZM8.68 22.01C8.89 22.01 9.07 21.93 9.23 21.78C9.38 21.62 9.46 21.44 9.46 21.24C9.46 21.03 9.38 20.85 9.23 20.71C9.07 20.57 8.89 20.5 8.68 20.5L5.76 20.5C5.13 20.5 4.6 20.28 4.16 19.84C3.72 19.4 3.5 18.86 3.5 18.24L3.5 15.22C3.5 15 3.42 14.83 3.28 14.69C3.12 14.54 2.95 14.47 2.76 14.47C2.55 14.47 2.37 14.54 2.22 14.69C2.06 14.83 1.99 15.01 1.99 15.24L1.99 18.24C1.99 18.91 2.16 19.53 2.51 20.11C2.85 20.69 3.31 21.15 3.89 21.49C4.46 21.83 5.08 22.01 5.76 22.01L8.68 22.01ZM18.24 22.01C18.91 22.01 19.53 21.83 20.11 21.49C20.69 21.15 21.15 20.69 21.49 20.11C21.83 19.53 22.01 18.91 22.01 18.24L22.01 15.24C22.01 15.03 21.93 14.85 21.78 14.7C21.62 14.54 21.44 14.47 21.24 14.47C21.03 14.47 20.85 14.54 20.71 14.7C20.57 14.85 20.5 15.03 20.5 15.24L20.5 18.24C20.5 18.86 20.28 19.4 19.84 19.84C19.4 20.28 18.86 20.5 18.24 20.5L15.24 20.5C15.03 20.5 14.85 20.57 14.7 20.71C14.54 20.85 14.47 21.03 14.47 21.24C14.47 21.44 14.54 21.62 14.7 21.78C14.85 21.93 15.03 22.01 15.24 22.01L18.24 22.01ZM21.24 9.53C21.44 9.53 21.62 9.45 21.78 9.31C21.93 9.17 22.01 8.99 22.01 8.78L22.01 5.76C22.01 5.07 21.84 4.44 21.5 3.86C21.16 3.28 20.7 2.83 20.12 2.5C19.54 2.16 18.91 1.99 18.24 1.99L15.31 1.99C15.1 1.99 14.92 2.06 14.77 2.21C14.61 2.35 14.54 2.53 14.54 2.76C14.54 2.96 14.61 3.14 14.77 3.29C14.92 3.43 15.1 3.5 15.31 3.5L18.24 3.5C18.86 3.5 19.4 3.72 19.84 4.16C20.28 4.6 20.5 5.13 20.5 5.76L20.5 8.78C20.5 8.99 20.57 9.17 20.71 9.31C20.85 9.45 21.03 9.53 21.24 9.53Z" fill="#000000" fill-opacity="0.901961" fill-rule="nonzero"/>
		<path id="path" d="M18.5 12.74C18.71 12.74 18.89 12.67 19.04 12.53C19.19 12.38 19.27 12.2 19.27 12C19.27 11.79 19.19 11.61 19.04 11.47C18.89 11.33 18.71 11.26 18.5 11.26L5.52 11.26C5.31 11.26 5.13 11.33 4.98 11.47C4.82 11.61 4.75 11.79 4.75 12C4.75 12.2 4.82 12.38 4.98 12.53C5.13 12.67 5.31 12.74 5.52 12.74L18.5 12.74Z" fill="#000000" fill-opacity="0.901961" fill-rule="nonzero"/>
	</g>
</svg>
