<svg width="24.000000" height="24.000000" viewBox="0 0 24 24" fill="none" xmlns="http://www.w3.org/2000/svg" xmlns:xlink="http://www.w3.org/1999/xlink">
	<desc>
			Created with Pixso.
	</desc>
	<defs/>
	<path d="M18.17 2L5.82 2C3.71 2 2 3.72 2 5.83L2 18.17C2 20.28 3.71 22 5.82 22L18.17 22C19.99 22 21.51 20.72 21.9 19.02C21.96 18.91 22 18.79 22 18.66L22 5.83C22 3.72 20.28 2 18.17 2ZM18.92 13.03C18.92 13.44 18.58 13.78 18.17 13.78C17.75 13.78 17.42 13.44 17.42 13.03L17.42 10.97C17.42 10.56 17.75 10.22 18.17 10.22C18.58 10.22 18.92 10.56 18.92 10.97L18.92 13.03ZM5.07 13.03L5.07 10.97C5.07 10.56 5.41 10.22 5.82 10.22C6.25 10.22 6.57 10.56 6.57 10.97L6.57 13.03C6.57 13.44 6.25 13.78 5.82 13.78C5.41 13.78 5.07 13.44 5.07 13.03ZM15.83 8.92L15.83 15.08C15.83 15.5 15.5 15.83 15.08 15.83C14.67 15.83 14.33 15.5 14.33 15.08L14.33 8.92C14.33 8.5 14.67 8.17 15.08 8.17C15.5 8.17 15.83 8.5 15.83 8.92ZM12.75 6.86L12.75 17.14C12.75 17.54 12.41 17.89 12 17.89C11.59 17.89 11.25 17.54 11.25 17.14L11.25 6.86C11.25 6.45 11.59 6.11 12 6.11C12.41 6.11 12.75 6.45 12.75 6.86ZM9.67 8.92L9.67 15.08C9.67 15.5 9.33 15.83 8.92 15.83C8.5 15.83 8.17 15.5 8.17 15.08L8.17 8.92C8.17 8.5 8.5 8.17 8.92 8.17C9.33 8.17 9.67 8.5 9.67 8.92Z" fill="#000000" fill-opacity="1.000000" fill-rule="evenodd"/>
</svg>
