<svg width="24.000000" height="24.000000" viewBox="0 0 24 24" fill="none" xmlns="http://www.w3.org/2000/svg" xmlns:xlink="http://www.w3.org/1999/xlink">
	<desc>
			Created with Pixso.
	</desc>
	<defs/>
	<path d="M21.25 17C21.25 18.1 20.33 19 19.19 19L4.79 19C3.66 19 2.73 18.1 2.73 17L2.73 9C2.73 7.9 3.65 7 4.79 7L7.14 7C7.79 7 8.35 6.59 8.57 6C8.78 5.4 9.35 5 10 5L14 5C14.65 5 15.22 5.4 15.43 6C15.64 6.59 16.2 7 16.86 7L19.2 7C20.33 7 21.25 7.9 21.25 9L21.25 17Z" stroke="#000000" stroke-opacity="1.000000" stroke-width="1.500000" stroke-linejoin="round"/>
	<path d="M12 16C10.01 16 8.39 14.43 8.39 12.5C8.39 10.56 10.01 9 12 9C13.98 9 15.6 10.56 15.6 12.5C15.6 14.43 13.98 16 12 16Z" stroke="#000000" stroke-opacity="1.000000" stroke-width="1.500000" stroke-linejoin="round"/>
	<path d="M5.82 7L5.82 6" stroke="#000000" stroke-opacity="1.000000" stroke-width="1.500000" stroke-linejoin="round" stroke-linecap="round"/>
</svg>
